<svg width="28" height="32" viewBox="0 0 28 32" fill="none" xmlns="http://www.w3.org/2000/svg">
<path d="M26 29.9355H23.9355V4.64516C23.9355 4.0751 23.4733 3.6129 22.9032 3.6129H15.1613V1.03226C15.1613 0.462194 14.6991 0 14.129 0H6.96771C6.39765 0 5.93545 0.462194 5.93545 1.03226V3.6129H5.09674C4.52668 3.6129 4.06449 4.0751 4.06449 4.64516V29.9355H1.99997C1.42991 29.9355 0.967712 30.3977 0.967712 30.9677C0.967712 31.5378 1.42991 32 1.99997 32H26C26.5701 32 27.0322 31.5378 27.0322 30.9677C27.0322 30.3977 26.5701 29.9355 26 29.9355ZM7.99997 2.06452H13.0967V3.6129H7.99997V2.06452ZM11.9355 29.9355V25.5484H16.0645V29.9355H11.9355ZM18.129 29.9355V25.5484H18.5806C19.1507 25.5484 19.6129 25.0862 19.6129 24.5161C19.6129 23.9461 19.1507 23.4839 18.5806 23.4839C14.99 23.4839 12.745 23.4839 9.41932 23.4839C8.84926 23.4839 8.38707 23.9461 8.38707 24.5161C8.38707 25.0862 8.84926 25.5484 9.41932 25.5484H9.87094V29.9355H6.129V5.67742H21.8709V29.9355H18.129ZM12.5161 8.70968C12.5161 9.27974 12.0539 9.74193 11.4838 9.74193H10.3226C9.75249 9.74193 9.29029 9.27974 9.29029 8.70968C9.29029 8.13961 9.75249 7.67742 10.3226 7.67742H11.4838C12.0539 7.67742 12.5161 8.13961 12.5161 8.70968ZM18.6451 8.70968C18.6451 9.27974 18.183 9.74193 17.6129 9.74193H16.4516C15.8815 9.74193 15.4193 9.27974 15.4193 8.70968C15.4193 8.13961 15.8815 7.67742 16.4516 7.67742H17.6129C18.183 7.67742 18.6451 8.13961 18.6451 8.70968ZM12.5161 12.5806C12.5161 13.1507 12.0539 13.6129 11.4838 13.6129H10.3226C9.75249 13.6129 9.29029 13.1507 9.29029 12.5806C9.29029 12.0106 9.75249 11.5484 10.3226 11.5484H11.4838C12.0539 11.5484 12.5161 12.0106 12.5161 12.5806ZM18.6451 12.5806C18.6451 13.1507 18.183 13.6129 17.6129 13.6129H16.4516C15.8815 13.6129 15.4193 13.1507 15.4193 12.5806C15.4193 12.0106 15.8815 11.5484 16.4516 11.5484H17.6129C18.183 11.5484 18.6451 12.0106 18.6451 12.5806ZM12.5161 16.4516C12.5161 17.0217 12.0539 17.4839 11.4838 17.4839H10.3226C9.75249 17.4839 9.29029 17.0217 9.29029 16.4516C9.29029 15.8815 9.75249 15.4194 10.3226 15.4194H11.4838C12.0539 15.4194 12.5161 15.8815 12.5161 16.4516ZM18.6451 16.4516C18.6451 17.0217 18.183 17.4839 17.6129 17.4839H16.4516C15.8815 17.4839 15.4193 17.0217 15.4193 16.4516C15.4193 15.8815 15.8815 15.4194 16.4516 15.4194H17.6129C18.183 15.4194 18.6451 15.8815 18.6451 16.4516ZM12.5161 20.3226C12.5161 20.8926 12.0539 21.3548 11.4838 21.3548H10.3226C9.75249 21.3548 9.29029 20.8926 9.29029 20.3226C9.29029 19.7525 9.75249 19.2903 10.3226 19.2903H11.4838C12.0539 19.2903 12.5161 19.7525 12.5161 20.3226ZM18.6451 20.3226C18.6451 20.8926 18.183 21.3548 17.6129 21.3548H16.4516C15.8815 21.3548 15.4193 20.8926 15.4193 20.3226C15.4193 19.7525 15.8815 19.2903 16.4516 19.2903H17.6129C18.183 19.2903 18.6451 19.7525 18.6451 20.3226Z" fill="#FE2C76"/>
</svg>
