<svg width="32" height="32" viewBox="0 0 32 32" fill="none" xmlns="http://www.w3.org/2000/svg">
<g clip-path="url(#clip0)">
<path d="M30.999 13.9996C30.4471 13.9996 29.9991 14.4476 29.9991 14.9996V26.3229L21.9996 29.5227V18.9993C21.9996 18.4474 21.5516 17.9994 20.9997 17.9994C20.4477 17.9994 19.9997 18.4474 19.9997 18.9993V29.5207L12.0002 26.3209V10.4778L16.6339 12.3317C17.1399 12.5357 17.7279 12.2877 17.9339 11.7738C18.1398 11.2618 17.8899 10.6798 17.3759 10.4738L11.3903 8.078C11.3903 8.078 11.3903 8.078 11.3883 8.078L11.3723 8.072C11.1343 7.976 10.8683 7.976 10.6303 8.072L10.6123 8.078C10.6123 8.078 10.6123 8.078 10.6103 8.078L0.628937 12.0718C0.250961 12.2237 0.000976562 12.5897 0.000976562 12.9997V30.9986C0.000976562 31.3306 0.166966 31.6406 0.440949 31.8265C0.608939 31.9405 0.802927 31.9985 1.00091 31.9985C1.12691 31.9985 1.2529 31.9745 1.37289 31.9265L11.0003 28.0768L20.6097 31.9205C20.6097 31.9205 20.6097 31.9205 20.6117 31.9205L20.6297 31.9285C20.8677 32.0245 21.1337 32.0245 21.3716 31.9285L21.3896 31.9205C21.3896 31.9205 21.3896 31.9205 21.3916 31.9205L31.373 27.9288C31.749 27.7748 31.999 27.4088 31.999 26.9988V14.9996C31.999 14.4476 31.551 13.9996 30.999 13.9996ZM10.0004 26.3209L2.00085 29.5207V13.6757L10.0004 10.4758V26.3209Z" fill="#FE2C76"/>
<path d="M24.9994 4C23.3455 4 21.9996 5.34592 21.9996 6.99981C21.9996 8.65371 23.3455 9.99963 24.9994 9.99963C26.6533 9.99963 27.9993 8.65371 27.9993 6.99981C27.9993 5.34592 26.6533 4 24.9994 4ZM24.9994 7.99975C24.4475 7.99975 23.9995 7.55178 23.9995 6.99981C23.9995 6.44785 24.4475 5.99988 24.9994 5.99988C25.5514 5.99988 25.9994 6.44785 25.9994 6.99981C25.9994 7.55178 25.5514 7.99975 24.9994 7.99975Z" fill="#FE2C76"/>
<path d="M24.9994 0C21.1397 0 17.9999 3.1398 17.9999 6.99956C17.9999 10.5913 23.6155 16.9529 24.2555 17.6669C24.4455 17.8769 24.7155 17.9989 24.9994 17.9989C25.2834 17.9989 25.5534 17.8769 25.7434 17.6669C26.3834 16.9529 31.999 10.5913 31.999 6.99956C31.999 3.1398 28.8592 0 24.9994 0ZM24.9994 15.473C22.8156 12.8832 19.9998 8.90744 19.9998 6.99956C19.9998 4.24374 22.2436 1.99988 24.9994 1.99988C27.7553 1.99988 29.9991 4.24374 29.9991 6.99956C29.9991 8.90544 27.1833 12.8832 24.9994 15.473Z" fill="#FE2C76"/>
</g>
<defs>
<clipPath id="clip0">
<rect width="32" height="32" fill="white"/>
</clipPath>
</defs>
</svg>
