<svg width="22" height="22" viewBox="0 0 22 22" fill="none" xmlns="http://www.w3.org/2000/svg">
<path fill-rule="evenodd" clip-rule="evenodd" d="M11 0.332031C8.05331 0.332031 5.66665 2.7187 5.66665 5.66536C5.66665 8.61203 8.05331 10.9987 11 10.9987C13.9466 10.9987 16.3333 8.61203 16.3333 5.66536C16.3333 2.7187 13.9466 0.332031 11 0.332031ZM13.6666 5.66536C13.6666 4.1987 12.4666 2.9987 11 2.9987C9.53331 2.9987 8.33331 4.1987 8.33331 5.66536C8.33331 7.13203 9.53331 8.33203 11 8.33203C12.4666 8.33203 13.6666 7.13203 13.6666 5.66536ZM19 18.9987C18.7333 18.052 14.6 16.332 11 16.332C7.41331 16.332 3.30665 18.0387 2.99998 18.9987H19ZM0.333313 18.9987C0.333313 15.452 7.43998 13.6654 11 13.6654C14.56 13.6654 21.6666 15.452 21.6666 18.9987V21.6654H0.333313V18.9987Z" fill="black" fill-opacity="0.54"/>
</svg>
