<svg width="32" height="32" viewBox="0 0 32 32" fill="none" xmlns="http://www.w3.org/2000/svg">
<g id="icon/social/person_24px">
<path id="icon/social/person_24px_2" fill-rule="evenodd" clip-rule="evenodd" d="M16 5.33203C13.0533 5.33203 10.6666 7.7187 10.6666 10.6654C10.6666 13.612 13.0533 15.9987 16 15.9987C18.9466 15.9987 21.3333 13.612 21.3333 10.6654C21.3333 7.7187 18.9466 5.33203 16 5.33203ZM18.6666 10.6654C18.6666 9.1987 17.4666 7.9987 16 7.9987C14.5333 7.9987 13.3333 9.1987 13.3333 10.6654C13.3333 12.132 14.5333 13.332 16 13.332C17.4666 13.332 18.6666 12.132 18.6666 10.6654ZM24 23.9987C23.7333 23.052 19.6 21.332 16 21.332C12.4133 21.332 8.30665 23.0387 7.99998 23.9987H24ZM5.33331 23.9987C5.33331 20.452 12.44 18.6654 16 18.6654C19.56 18.6654 26.6666 20.452 26.6666 23.9987V26.6654H5.33331V23.9987Z" fill="black" fill-opacity="0.54"/>
</g>
</svg>
