<svg width="24" height="24" viewBox="0 0 24 24" fill="none" xmlns="http://www.w3.org/2000/svg">
<path d="M20.4371 0H14.8115C12.8727 0 11.2954 1.57728 11.2954 3.51601V6.3757C11.2954 8.07365 12.5054 9.49435 14.1082 9.82106V11.2981C14.1082 11.5645 14.2587 11.8079 14.497 11.9271C14.7347 12.0459 15.0198 12.0209 15.2334 11.8607L17.8587 9.89171H20.4371C22.3806 9.89171 24 8.31963 24 6.3757V3.51601C24 1.57245 22.381 0 20.4371 0ZM22.5936 6.3757C22.5936 7.51924 21.606 8.4853 20.4371 8.4853H17.6243C17.4721 8.4853 17.3241 8.53467 17.2023 8.62594L15.5147 9.89171V9.18851C15.5147 8.80015 15.1998 8.4853 14.8115 8.4853C13.6482 8.4853 12.7018 7.53893 12.7018 6.3757V3.51601C12.7018 2.35277 13.6482 1.4064 14.8115 1.4064H20.4371C21.606 1.4064 22.5936 2.37246 22.5936 3.51601V6.3757ZM21.8739 18.8841L16.9016 15.3181C16.6699 15.1519 16.3608 15.1421 16.1191 15.2932L13.3176 17.0438C13.1669 17.0727 12.512 16.9501 11.2456 16.0333C10.1809 15.2626 9.03985 14.1835 8.19343 13.1467C6.93924 11.6105 6.84576 10.836 6.91458 10.6623L8.67353 7.84755C8.82462 7.60578 8.81478 7.29675 8.64863 7.06507L5.08255 2.09273C4.96221 1.92494 4.77422 1.81853 4.56847 1.8017C4.3629 1.78487 4.15991 1.85931 4.01387 2.0053L1.44817 4.57081C-0.00525553 6.0241 -0.409831 8.23703 0.441419 10.0775C1.57962 12.5384 3.05728 14.8124 4.83339 16.8364C7.37237 19.7297 10.4414 22.002 13.9554 23.59C15.7534 24.4026 17.9303 23.9838 19.371 22.5432L21.9614 19.9528C22.2676 19.6465 22.227 19.1373 21.8739 18.8841ZM18.3765 21.5487C17.3482 22.5769 15.8043 22.8822 14.5345 22.3084C6.95921 18.8849 3.25291 12.806 1.71787 9.48713C1.11312 8.17955 1.40434 6.60353 2.44259 5.56537L4.42248 3.58563L7.23102 7.5019C5.6063 10.103 5.69997 9.94928 5.67859 9.98945C5.32647 10.6508 5.47658 11.5469 6.12484 12.6526C7.18293 14.4574 9.42333 16.612 11.2036 17.6957C12.4237 18.4385 13.3309 18.6322 13.9773 18.2881C14.0174 18.2667 13.8656 18.3591 16.4648 16.7356L20.381 19.5442L18.3765 21.5487ZM14.8115 4.26609C14.4231 4.26609 14.1082 4.58094 14.1082 4.96929C14.1082 5.35765 14.4231 5.6725 14.8115 5.6725C15.1998 5.6725 15.5147 5.35765 15.5147 4.96929C15.5147 4.58094 15.1998 4.26609 14.8115 4.26609ZM17.6243 4.26609C17.2359 4.26609 16.9211 4.58094 16.9211 4.96929C16.9211 5.35765 17.2359 5.6725 17.6243 5.6725C18.0126 5.6725 18.3275 5.35765 18.3275 4.96929C18.3275 4.58094 18.0126 4.26609 17.6243 4.26609ZM20.4371 4.26609C20.0487 4.26609 19.7339 4.58094 19.7339 4.96929C19.7339 5.35765 20.0487 5.6725 20.4371 5.6725C20.8254 5.6725 21.1403 5.35765 21.1403 4.96929C21.1403 4.58094 20.8254 4.26609 20.4371 4.26609Z" fill="#FE2C76"/>
</svg>
