<svg width="30" height="30" viewBox="0 0 30 30" fill="none" xmlns="http://www.w3.org/2000/svg">
<g clip-path="url(#clip0)">
<path d="M22.1282 8.66256L12.0474 0.181352C11.8169 -0.0107188 11.5116 -0.0401915 11.2309 0.0459414L10.578 3.07618L19.1473 27.1161L20.5262 29.9299L22.8552 25.9076L23.5144 13.1872L22.1282 8.66256Z" fill="#8B8892"/>
<path d="M17.9938 25.4691L2.9114 10.3867L0.442139 10.3934L0.622607 12.9868L5.03905 26.4487L8.3203 30.001H20.2734C20.3593 29.9772 20.4426 29.954 20.5262 29.9309L17.9938 25.4691Z" fill="#8B8892"/>
<path d="M0.0929297 11.093C0.0317578 11.2151 0 11.3499 0 11.4865V23.8489C0 24.1258 0.130371 24.3865 0.351914 24.5527L7.44176 29.8262C7.59398 29.9403 7.77926 30.0021 7.96963 30.0021H8.32031L0.442148 10.3945L0.0929297 11.093Z" fill="#AEADB3"/>
<path d="M20.7256 29.8762L29.5734 24.6027C29.8381 24.4439 30 24.1579 30 23.8493V18.5158C30 18.3166 29.9322 18.1234 29.8077 17.9678L22.7179 9.17875C22.6765 9.1365 22.6353 9.09455 22.5938 9.05213L22.1282 8.66406L22.1279 8.66418L20.5227 29.9201L20.5262 29.9314C20.592 29.9132 20.658 29.895 20.7256 29.8762Z" fill="#AEADB3"/>
<path d="M11.2309 0.046875C11.1849 0.0610547 11.1357 0.0493359 11.0917 0.0713086L4.06001 3.60926C3.88985 3.69434 3.75198 3.83221 3.6669 4.00236L0.442139 10.3934L20.5262 29.9309L11.2309 0.046875Z" fill="#787780"/>
</g>
<defs>
<clipPath id="clip0">
<rect width="30" height="30" fill="white"/>
</clipPath>
</defs>
</svg>
